<mxfile host="app.diagrams.net" modified="2023-10-12T11:19:16.465Z" agent="Mozilla/5.0 (Windows NT 10.0; Win64; x64) AppleWebKit/537.36 (KHTML, like Gecko) Chrome/117.0.0.0 Safari/537.36 Edg/117.0.2045.60" etag="cINQ9pZga4gy1dNA1-ng" version="22.0.4" type="github">
  <diagram name="Page-1" id="e7e014a7-5840-1c2e-5031-d8a46d1fe8dd">
    <mxGraphModel dx="925" dy="540" grid="1" gridSize="10" guides="1" tooltips="1" connect="1" arrows="1" fold="1" page="1" pageScale="1" pageWidth="1169" pageHeight="826" background="none" math="0" shadow="0">
      <root>
        <mxCell id="0" />
        <mxCell id="1" parent="0" />
        <mxCell id="2" value="ie.ruan.quiz.quizzes.Quiz 1" style="swimlane;whiteSpace=wrap;fontSize=17;startSize=40;" parent="1" vertex="1">
          <mxGeometry x="165" y="280" width="280" height="570" as="geometry" />
        </mxCell>
        <mxCell id="12" value="" style="edgeStyle=elbowEdgeStyle;elbow=horizontal;strokeColor=#FF0000;endArrow=open;endFill=1;rounded=0" parent="2" source="10" edge="1">
          <mxGeometry width="100" height="100" relative="1" as="geometry">
            <mxPoint x="160" y="290" as="sourcePoint" />
            <mxPoint x="60" y="135" as="targetPoint" />
            <Array as="points">
              <mxPoint x="30" y="250" />
            </Array>
          </mxGeometry>
        </mxCell>
        <mxCell id="3" value="ie.ruan.quiz.quizzes.Quiz 2" style="swimlane;whiteSpace=wrap;startSize=40;fontSize=17;" parent="1" vertex="1">
          <mxGeometry x="445" y="280" width="280" height="570" as="geometry" />
        </mxCell>
        <mxCell id="4" value="ie.ruan.quiz.quizzes.Quiz 3" style="swimlane;whiteSpace=wrap;startSize=40;fontSize=17;" parent="1" vertex="1">
          <mxGeometry x="724.5" y="280" width="280" height="570" as="geometry" />
        </mxCell>
        <mxCell id="Dbge9nngDDkh_O0dH9pz-51" style="edgeStyle=orthogonalEdgeStyle;rounded=0;orthogonalLoop=1;jettySize=auto;html=1;entryX=0;entryY=0.5;entryDx=0;entryDy=0;exitX=0;exitY=0.5;exitDx=0;exitDy=0;" edge="1" parent="1" source="Dbge9nngDDkh_O0dH9pz-42" target="Dbge9nngDDkh_O0dH9pz-43">
          <mxGeometry relative="1" as="geometry" />
        </mxCell>
        <mxCell id="Dbge9nngDDkh_O0dH9pz-52" style="edgeStyle=orthogonalEdgeStyle;rounded=0;orthogonalLoop=1;jettySize=auto;html=1;entryX=0;entryY=0.5;entryDx=0;entryDy=0;exitX=0;exitY=0.5;exitDx=0;exitDy=0;" edge="1" parent="1" source="Dbge9nngDDkh_O0dH9pz-42" target="Dbge9nngDDkh_O0dH9pz-45">
          <mxGeometry relative="1" as="geometry" />
        </mxCell>
        <mxCell id="Dbge9nngDDkh_O0dH9pz-55" style="edgeStyle=orthogonalEdgeStyle;rounded=0;orthogonalLoop=1;jettySize=auto;html=1;" edge="1" parent="1" source="Dbge9nngDDkh_O0dH9pz-42" target="2">
          <mxGeometry relative="1" as="geometry">
            <Array as="points">
              <mxPoint x="227" y="10" />
              <mxPoint x="410" y="10" />
            </Array>
          </mxGeometry>
        </mxCell>
        <mxCell id="Dbge9nngDDkh_O0dH9pz-42" value="Main" style="rounded=0;whiteSpace=wrap;html=1;fontSize=18;" vertex="1" parent="1">
          <mxGeometry x="165" y="30" width="125" height="40" as="geometry" />
        </mxCell>
        <mxCell id="Dbge9nngDDkh_O0dH9pz-43" value="ie.ruan.quiz.businesslogic.Login" style="rounded=0;whiteSpace=wrap;html=1;fontSize=18;" vertex="1" parent="1">
          <mxGeometry x="165" y="90" width="125" height="40" as="geometry" />
        </mxCell>
        <mxCell id="Dbge9nngDDkh_O0dH9pz-53" style="edgeStyle=orthogonalEdgeStyle;rounded=0;orthogonalLoop=1;jettySize=auto;html=1;entryX=1;entryY=0.5;entryDx=0;entryDy=0;" edge="1" parent="1" source="Dbge9nngDDkh_O0dH9pz-45" target="Dbge9nngDDkh_O0dH9pz-42">
          <mxGeometry relative="1" as="geometry">
            <Array as="points">
              <mxPoint x="310" y="180" />
              <mxPoint x="310" y="40" />
            </Array>
          </mxGeometry>
        </mxCell>
        <mxCell id="Dbge9nngDDkh_O0dH9pz-54" style="edgeStyle=orthogonalEdgeStyle;rounded=0;orthogonalLoop=1;jettySize=auto;html=1;entryX=1;entryY=0.5;entryDx=0;entryDy=0;" edge="1" parent="1" target="Dbge9nngDDkh_O0dH9pz-43">
          <mxGeometry relative="1" as="geometry">
            <mxPoint x="300" y="110" as="targetPoint" />
            <mxPoint x="300" y="40" as="sourcePoint" />
            <Array as="points">
              <mxPoint x="310" y="40" />
              <mxPoint x="310" y="110" />
            </Array>
          </mxGeometry>
        </mxCell>
        <mxCell id="Dbge9nngDDkh_O0dH9pz-45" value="Select Questions" style="rounded=0;whiteSpace=wrap;html=1;fontSize=18;" vertex="1" parent="1">
          <mxGeometry x="165" y="160" width="125" height="40" as="geometry" />
        </mxCell>
        <mxCell id="Dbge9nngDDkh_O0dH9pz-57" style="edgeStyle=orthogonalEdgeStyle;rounded=0;orthogonalLoop=1;jettySize=auto;html=1;entryX=0;entryY=0.5;entryDx=0;entryDy=0;" edge="1" parent="1" source="Dbge9nngDDkh_O0dH9pz-56" target="Dbge9nngDDkh_O0dH9pz-43">
          <mxGeometry relative="1" as="geometry" />
        </mxCell>
        <mxCell id="Dbge9nngDDkh_O0dH9pz-56" value="&lt;font style=&quot;font-size: 14px;&quot;&gt;User DB&lt;/font&gt;" style="shape=cylinder3;whiteSpace=wrap;html=1;boundedLbl=1;backgroundOutline=1;size=15;" vertex="1" parent="1">
          <mxGeometry x="20" y="80" width="60" height="80" as="geometry" />
        </mxCell>
      </root>
    </mxGraphModel>
  </diagram>
</mxfile>
